<svg width="48" height="48" viewBox="0 0 48 48" fill="none" xmlns="http://www.w3.org/2000/svg">
<g clip-path="url(#clip0_3_13)">
<rect width="48" height="48" rx="10" fill="black"/>
<path d="M19.3187 7.13004L26.4886 17.5332C26.538 17.6112 26.6369 17.6372 26.7358 17.6112L38.356 13.632C38.4796 13.58 38.6033 13.658 38.628 13.7881C38.6527 13.8661 38.628 13.9441 38.6033 13.9961L31.4333 24.3993C31.3839 24.4773 31.3839 24.5813 31.4333 24.6594L38.6033 35.0625C38.6774 35.1666 38.6527 35.3226 38.5538 35.3746C38.5044 35.4266 38.4302 35.4266 38.356 35.4006L26.7358 31.4214C26.6369 31.3954 26.538 31.4214 26.4886 31.4995L19.3187 41.9026C19.2445 42.0066 19.1209 42.0327 19.022 41.9546C18.9725 41.9026 18.9231 41.8506 18.9231 41.7726V28.8987C18.9231 28.7946 18.8489 28.7166 18.7747 28.6906L7.15453 24.7114C7.03091 24.6854 6.98146 24.5553 7.00618 24.4253C7.0309 24.3473 7.08035 24.2953 7.15453 24.2693L18.7747 20.29C18.8736 20.264 18.9231 20.16 18.9231 20.082V7.23407C18.9231 7.10403 19.022 7 19.1456 7C19.2198 7.02601 19.2692 7.07802 19.3187 7.13004Z" fill="white"/>
</g>
<defs>
<clipPath id="clip0_3_13">
<rect width="48" height="48" fill="white"/>
</clipPath>
</defs>
</svg>