<svg width="48" height="48" viewBox="0 0 48 48" fill="none" xmlns="http://www.w3.org/2000/svg">
<g clip-path="url(#clip0_3_16)">
<rect width="48" height="48" rx="10" fill="black"/>
<path d="M7.77565 22.7936H13.3351V20.2175H5V31.9814H7.77565V27.8254H12.5841V25.2837H7.77565V22.7936ZM14.0045 20.2175V31.9814H18.5109C22.0131 31.9814 24.5439 29.56 24.5439 26.0651C24.5439 22.6218 22.0131 20.2175 18.5109 20.2175H14.0045ZM16.7802 29.3539V22.8451H18.5027C20.3069 22.8451 21.7111 24.2447 21.7111 26.0651C21.7111 27.9371 20.3151 29.3539 18.5027 29.3539H16.7802ZM37.1813 20.2175H35.1159L31.1565 26.4945L27.1726 20.2175H25.1153V31.9814H27.891L27.8747 26.048L30.3727 30.1095V30.1267H31.9157V30.1095L34.3974 26.0823V31.9814H37.1731L37.1813 20.2175Z" fill="white"/>
<path d="M38.6181 12.0429L40.9856 15.4776C41.0019 15.5034 41.0345 15.512 41.0672 15.5034L44.9041 14.1896C44.945 14.1725 44.9858 14.1982 44.9939 14.2411C45.0021 14.2669 44.9939 14.2927 44.9858 14.3098L42.6183 17.7446C42.602 17.7703 42.602 17.8047 42.6183 17.8304L44.9858 21.2651C45.0103 21.2995 45.0021 21.351 44.9694 21.3682C44.9531 21.3853 44.9286 21.3853 44.9041 21.3768L41.0672 20.063C41.0345 20.0544 41.0019 20.063 40.9856 20.0887L38.6181 23.5234C38.5936 23.5578 38.5528 23.5664 38.5201 23.5406C38.5038 23.5234 38.4875 23.5063 38.4875 23.4805V19.2301C38.4875 19.1957 38.463 19.17 38.4385 19.1614L34.6016 17.8476C34.5607 17.839 34.5444 17.7961 34.5526 17.7531C34.5607 17.7274 34.5771 17.7102 34.6016 17.7016L38.4385 16.3878C38.4711 16.3793 38.4875 16.3449 38.4875 16.3191V12.0773C38.4875 12.0343 38.5201 12 38.561 12C38.5854 12.0086 38.6018 12.0258 38.6181 12.0429Z" fill="white"/>
</g>
<defs>
<clipPath id="clip0_3_16">
<rect width="48" height="48" fill="white"/>
</clipPath>
</defs>
</svg>
